<svg width="20" height="20" viewBox="0 0 20 20" fill="none" xmlns="http://www.w3.org/2000/svg">
<path d="M10 17.5C14.1421 17.5 17.5 14.1421 17.5 10C17.5 5.85786 14.1421 2.5 10 2.5C5.85786 2.5 2.5 5.85786 2.5 10C2.5 14.1421 5.85786 17.5 10 17.5Z" stroke="#8D99AE" stroke-width="1.66667" stroke-linecap="round" stroke-linejoin="round"/>
<path d="M10 10.8337C10.4602 10.8337 10.8333 10.4606 10.8333 10.0003C10.8333 9.54009 10.4602 9.16699 10 9.16699C9.53976 9.16699 9.16666 9.54009 9.16666 10.0003C9.16666 10.4606 9.53976 10.8337 10 10.8337Z" stroke="#8D99AE" stroke-width="1.66667" stroke-linecap="round" stroke-linejoin="round"/>
<path d="M5.83334 9.99967C5.83334 8.89461 6.27232 7.8348 7.05372 7.0534C7.83513 6.27199 8.89493 5.83301 10 5.83301" stroke="#8D99AE" stroke-width="1.66667" stroke-linecap="round" stroke-linejoin="round"/>
<path d="M10 14.1667C11.1051 14.1667 12.1649 13.7277 12.9463 12.9463C13.7277 12.1649 14.1667 11.1051 14.1667 10" stroke="#8D99AE" stroke-width="1.66667" stroke-linecap="round" stroke-linejoin="round"/>
</svg>
