<svg width="20" height="20" viewBox="0 0 20 20" fill="none" xmlns="http://www.w3.org/2000/svg">
<path d="M5 16.667C6.38071 16.667 7.5 15.5477 7.5 14.167C7.5 12.7863 6.38071 11.667 5 11.667C3.61929 11.667 2.5 12.7863 2.5 14.167C2.5 15.5477 3.61929 16.667 5 16.667Z" stroke="#8D99AE" stroke-width="1.66667" stroke-linecap="round" stroke-linejoin="round"/>
<path d="M13.3333 16.667C14.714 16.667 15.8333 15.5477 15.8333 14.167C15.8333 12.7863 14.714 11.667 13.3333 11.667C11.9526 11.667 10.8333 12.7863 10.8333 14.167C10.8333 15.5477 11.9526 16.667 13.3333 16.667Z" stroke="#8D99AE" stroke-width="1.66667" stroke-linecap="round" stroke-linejoin="round"/>
<path d="M7.5 14.1663V3.33301H15.8333V14.1663" stroke="#8D99AE" stroke-width="1.66667" stroke-linecap="round" stroke-linejoin="round"/>
<path d="M7.5 6.66699H15.8333" stroke="#8D99AE" stroke-width="1.66667" stroke-linecap="round" stroke-linejoin="round"/>
</svg>
