<svg width="122" height="122" viewBox="0 0 122 122" fill="none" xmlns="http://www.w3.org/2000/svg">
<ellipse cx="62.2764" cy="61.0553" rx="45.7915" ry="45.7915" fill="#5C6779"/>
<circle cx="60.75" cy="60.75" r="60.75" fill="#5C6779" fill-opacity="0.4"/>
<ellipse cx="62.2764" cy="61.0552" rx="30.5276" ry="30.5276" fill="#8D99AE"/>
<path d="M8.18257 67.6844C7.6395 67.6844 7.25055 67.5677 7.01571 67.3344C6.78087 67.0864 6.66345 66.6271 6.66345 65.9562C6.66345 65.5042 6.70748 64.9281 6.79554 64.2281C6.89829 63.5135 7.05974 62.5365 7.2799 61.2969C7.66152 59.0073 7.96241 57.024 8.18257 55.3469C8.31467 54.2969 8.38072 53.4219 8.38072 52.7219C8.38072 52.0657 8.13854 51.7376 7.65418 51.7376C7.27256 51.7376 6.81022 51.9344 6.26715 52.3282C5.73876 52.7073 5.15166 53.3198 4.50584 54.1657C4.30036 54.4427 4.07286 54.5813 3.82334 54.5813C3.61785 54.5813 3.43438 54.4865 3.27293 54.2969C3.12615 54.0928 3.05276 53.8667 3.05276 53.6188C3.05276 53.3855 3.0968 53.1521 3.18486 52.9188C3.28761 52.6709 3.44906 52.3938 3.66922 52.0876C4.37375 51.1105 5.159 50.3594 6.02497 49.8344C6.89095 49.2949 7.75692 49.0251 8.6229 49.0251C9.43017 49.0251 10.0466 49.2803 10.4723 49.7907C10.9126 50.3011 11.1328 51.0448 11.1328 52.0219C11.1328 52.4157 11.0961 52.8823 11.0227 53.4219C10.9493 53.9469 10.8832 54.3771 10.8245 54.7125C10.7658 55.048 10.7218 55.2813 10.6924 55.4125C11.5291 53.0355 12.4684 51.3803 13.5105 50.4469C14.5526 49.499 15.6975 49.0251 16.9451 49.0251C17.8991 49.0251 18.6477 49.3605 19.1907 50.0313C19.7485 50.7021 20.0274 51.6501 20.0274 52.875C20.0274 53.3563 19.9613 53.9542 19.8292 54.6688C20.5631 52.6563 21.4217 51.2126 22.4051 50.3376C23.3885 49.4626 24.5187 49.0251 25.7956 49.0251C26.8231 49.0251 27.6083 49.3532 28.1514 50.0094C28.7091 50.6657 28.988 51.5844 28.988 52.7657C28.988 53.4073 28.8926 54.1875 28.7018 55.1063L27.3588 61.3625C27.212 62.0917 27.1386 62.7188 27.1386 63.2438C27.1386 63.8562 27.2781 64.3156 27.557 64.6219C27.8505 64.9281 28.2541 65.0812 28.7679 65.0812C29.2522 65.0812 29.7219 64.9208 30.1769 64.6C30.6466 64.2792 31.197 63.7469 31.8281 63.0031C32.0043 62.799 32.2024 62.6969 32.4226 62.6969C32.6134 62.6969 32.7602 62.7844 32.8629 62.9594C32.9803 63.1344 33.039 63.375 33.039 63.6813C33.039 64.25 32.8996 64.7021 32.6207 65.0375C31.8575 65.9562 31.1016 66.6271 30.353 67.05C29.6045 67.4729 28.8192 67.6844 27.9973 67.6844C26.7497 67.6844 25.7736 67.3198 25.0691 66.5906C24.3646 65.8469 24.0123 64.8552 24.0123 63.6156C24.0123 62.7552 24.1885 61.5083 24.5407 59.875L25.4214 55.8719C25.4507 55.7407 25.5021 55.5073 25.5755 55.1719C25.6489 54.8365 25.7076 54.523 25.7516 54.2313C25.7956 53.925 25.8177 53.6261 25.8177 53.3344C25.8177 52.824 25.7149 52.4448 25.5094 52.1969C25.3186 51.9344 25.0398 51.8032 24.6728 51.8032C23.983 51.8032 23.2564 52.248 22.4932 53.1375C21.7446 54.0125 21.0254 55.4709 20.3356 57.5125C19.6604 59.5542 19.11 62.2083 18.6844 65.475C18.5816 66.35 18.3982 66.9406 18.134 67.2469C17.8844 67.5385 17.4735 67.6844 16.901 67.6844C16.402 67.6844 16.0351 67.5677 15.8002 67.3344C15.5801 67.101 15.47 66.6635 15.47 66.0219C15.47 65.424 15.5507 64.6437 15.7122 63.6813C15.8736 62.7042 16.0791 61.5594 16.3286 60.2469C17.0038 56.7177 17.3414 54.4427 17.3414 53.4219C17.3414 52.8678 17.2313 52.4594 17.0111 52.1969C16.8056 51.9344 16.4901 51.8032 16.0644 51.8032C15.3452 51.8032 14.604 52.2115 13.8408 53.0282C13.0775 53.8303 12.329 55.2667 11.5951 57.3375C10.8759 59.3938 10.2741 62.1792 9.78977 65.6937C9.68702 66.4375 9.53291 66.9552 9.32742 67.2469C9.13661 67.5385 8.755 67.6844 8.18257 67.6844Z" fill="#EDF2F4"/>
<path d="M33.5107 67.6844C32.8502 67.6844 32.3071 67.3854 31.8814 66.7875C31.4705 66.175 31.265 65.4167 31.265 64.5125C31.265 63.4188 31.3384 62.4198 31.4852 61.5156C31.6319 60.5969 31.8741 59.6271 32.2117 58.6063C32.3585 58.1688 32.564 57.8552 32.8281 57.6657C33.0923 57.4761 33.5107 57.3813 34.0831 57.3813C34.406 57.3813 34.6261 57.4323 34.7436 57.5344C34.8757 57.6365 34.9417 57.7896 34.9417 57.9938C34.9417 58.1104 34.861 58.5042 34.6995 59.175C34.5528 59.7146 34.4353 60.2031 34.3473 60.6406C34.0537 62.1719 33.9069 63.1927 33.9069 63.7031C33.9069 64.0094 33.9436 64.2281 34.017 64.3594C34.0904 64.476 34.2078 64.5344 34.3693 64.5344C34.5895 64.5344 34.861 64.3156 35.1839 63.8781C35.5215 63.4406 35.8737 62.7771 36.2407 61.8875C36.6223 60.9979 36.9892 59.9042 37.3415 58.6063C37.4589 58.1688 37.635 57.8552 37.8699 57.6657C38.1194 57.4761 38.4863 57.3813 38.9707 57.3813C39.3083 57.3813 39.5431 57.425 39.6752 57.5125C39.8073 57.5854 39.8734 57.7313 39.8734 57.95C39.8734 58.3146 39.6899 59.3136 39.323 60.9469C38.912 62.8135 38.7065 63.9656 38.7065 64.4031C38.7065 64.6802 38.7652 64.899 38.8826 65.0594C39.0001 65.2052 39.1542 65.2781 39.345 65.2781C39.6385 65.2781 39.9835 65.1031 40.3798 64.7531C40.7907 64.3885 41.3338 63.8052 42.009 63.0031C42.1851 62.799 42.3832 62.6969 42.6034 62.6969C42.7942 62.6969 42.941 62.7844 43.0437 62.9594C43.1612 63.1344 43.2199 63.375 43.2199 63.6813C43.2199 64.2646 43.0804 64.7167 42.8016 65.0375C42.1704 65.8104 41.4879 66.4448 40.754 66.9406C40.0348 67.4364 39.2129 67.6844 38.2882 67.6844C37.5837 67.6844 37.0626 67.4146 36.725 66.875C36.4021 66.3354 36.2407 65.5771 36.2407 64.6C35.9912 65.5917 35.6169 66.3573 35.1178 66.8969C34.6188 67.4219 34.0831 67.6844 33.5107 67.6844Z" fill="#EDF2F4"/>
<path d="M45.5297 68.1656C44.7665 68.1656 44.1794 67.9906 43.7684 67.6406C43.3721 67.2906 43.1739 66.8969 43.1739 66.4594C43.1739 66.0802 43.3134 65.7521 43.5922 65.475C43.8711 65.1979 44.2821 65.0594 44.8252 65.0594C45.016 65.0594 45.2361 65.0812 45.4857 65.125C45.7498 65.1542 45.948 65.176 46.0801 65.1906C46.0654 64.8115 45.9774 64.4542 45.8159 64.1187C45.6691 63.7833 45.4783 63.4625 45.2435 63.1563C45.0086 62.8354 44.7885 62.5583 44.583 62.325C44.128 63.1854 43.673 63.9 43.218 64.4687C42.7776 65.0375 42.2933 65.5771 41.7649 66.0875C41.5007 66.35 41.2218 66.4812 40.9283 66.4812C40.6934 66.4812 40.5026 66.401 40.3558 66.2406C40.2091 66.0656 40.1357 65.8542 40.1357 65.6062C40.1357 65.3146 40.2384 65.0448 40.4439 64.7969L40.7301 64.4469C41.5374 63.4552 42.1465 62.6385 42.5575 61.9969C42.807 61.574 43.1005 61.0125 43.4381 60.3125C43.7757 59.5979 44.106 58.8615 44.4289 58.1031C44.7077 57.4615 45.2875 57.1407 46.1682 57.1407C46.5791 57.1407 46.8653 57.1771 47.0268 57.25C47.1882 57.3229 47.269 57.4396 47.269 57.6C47.269 57.6875 47.2396 57.8261 47.1809 58.0157C47.1222 58.2052 47.0415 58.3948 46.9387 58.5844C46.6745 59.1094 46.5424 59.5542 46.5424 59.9188C46.5424 60.1375 46.6158 60.3781 46.7626 60.6406C46.9241 60.9031 47.1662 61.2313 47.4891 61.625C47.9588 62.2375 48.3111 62.7625 48.5459 63.2C48.7954 63.6229 48.9202 64.0896 48.9202 64.6C48.9202 64.7458 48.9055 64.95 48.8762 65.2125C49.5954 64.9354 50.4393 64.199 51.408 63.0031C51.5842 62.799 51.7823 62.6969 52.0025 62.6969C52.1933 62.6969 52.3401 62.7844 52.4428 62.9594C52.5602 63.1344 52.6189 63.375 52.6189 63.6813C52.6189 64.2354 52.4795 64.6875 52.2006 65.0375C51.4668 65.9417 50.7622 66.5614 50.0871 66.8969C49.4266 67.2177 48.6046 67.3927 47.6212 67.4219C47.0341 67.9177 46.337 68.1656 45.5297 68.1656Z" fill="#EDF2F4"/>
<path d="M53.7144 55.9375C53.098 55.9375 52.6356 55.799 52.3274 55.5219C52.0192 55.2302 51.8651 54.8292 51.8651 54.3188C51.8651 53.8084 52.0632 53.3855 52.4595 53.05C52.8705 52.7 53.3769 52.525 53.9786 52.525C54.5217 52.525 54.962 52.6563 55.2996 52.9188C55.6372 53.1813 55.806 53.5532 55.806 54.0344C55.806 54.6177 55.6152 55.0844 55.2336 55.4344C54.8519 55.7698 54.3456 55.9375 53.7144 55.9375ZM53.5383 67.6844C52.5843 67.6844 51.8871 67.3489 51.4467 66.6781C51.0211 66.0073 50.8083 65.1177 50.8083 64.0094C50.8083 63.3531 50.889 62.5146 51.0505 61.4938C51.2266 60.4583 51.4468 59.4959 51.7109 58.6063C51.843 58.1396 52.0192 57.8188 52.2393 57.6438C52.4595 57.4688 52.8118 57.3813 53.2961 57.3813C54.0447 57.3813 54.419 57.6292 54.419 58.125C54.419 58.4896 54.2795 59.3354 54.0006 60.6625C53.6484 62.2667 53.4723 63.3531 53.4723 63.9219C53.4723 64.3594 53.531 64.6948 53.6484 64.9281C53.7658 65.1615 53.964 65.2781 54.2428 65.2781C54.507 65.2781 54.8373 65.0958 55.2336 64.7312C55.6299 64.3667 56.1582 63.7906 56.8187 63.0031C56.9949 62.799 57.193 62.6969 57.4132 62.6969C57.604 62.6969 57.7508 62.7844 57.8535 62.9594C57.9709 63.1344 58.0296 63.375 58.0296 63.6813C58.0296 64.2646 57.8902 64.7167 57.6113 65.0375C56.1582 66.8021 54.8006 67.6844 53.5383 67.6844Z" fill="#EDF2F4"/>
<path d="M71.3516 62.6969C71.5424 62.6969 71.6892 62.7844 71.7919 62.9594C71.9093 63.1344 71.968 63.375 71.968 63.6813C71.968 64.2646 71.8286 64.7167 71.5497 65.0375C70.948 65.7667 70.2801 66.3937 69.5462 66.9187C68.827 67.4292 68.1005 67.6844 67.3666 67.6844C66.4126 67.6844 65.7154 67.3489 65.2751 66.6781C64.8494 66.0073 64.6366 65.1177 64.6366 64.0094C64.6366 63.4406 64.6953 62.7406 64.8127 61.9094C64.9448 61.0781 65.1136 60.2615 65.3191 59.4594C63.8514 59.4594 62.1121 59.525 60.1012 59.6563C59.7783 61.6979 59.6169 63.601 59.6169 65.3656C59.6169 66.7219 59.6903 68.1364 59.837 69.6093C59.9985 71.0968 60.2333 71.8406 60.5416 71.8406C60.6883 71.8406 60.8425 71.5854 61.0039 71.075C61.1654 70.5646 61.2975 69.8646 61.4002 68.975C61.5029 68.0854 61.5543 67.101 61.5543 66.0219C61.5543 64.8406 61.4883 63.5646 61.3562 62.1938C61.3268 61.7854 61.3929 61.4865 61.5543 61.2969C61.7304 61.0927 61.9873 60.9906 62.3249 60.9906C62.6331 60.9906 62.8606 61.0708 63.0074 61.2313C63.1542 61.3917 63.2422 61.6615 63.2716 62.0406C63.345 63.1052 63.3817 64.374 63.3817 65.8469C63.3817 68.2239 63.0881 70.2583 62.501 71.95C61.9286 73.6416 61.0333 74.4875 59.815 74.4875C58.7729 74.4875 58.0244 73.7364 57.5694 72.2343C57.1144 70.7468 56.8869 68.5083 56.8869 65.5187C56.8869 63.7542 57.0263 61.8656 57.3052 59.8531C57.2024 59.8677 57.0703 59.875 56.9089 59.875C56.4539 59.875 56.1456 59.7948 55.9842 59.6344C55.8374 59.474 55.764 59.2261 55.764 58.8906C55.764 58.5261 55.8594 58.2344 56.0502 58.0157C56.2557 57.7969 56.6373 57.6657 57.1951 57.6219C57.2978 57.6073 57.4593 57.6 57.6794 57.6C58.0757 55.6313 58.5821 53.8448 59.1986 52.2407C59.815 50.6365 60.5195 49.3678 61.3121 48.4344C62.1047 47.4865 62.9413 47.0126 63.822 47.0126C64.5118 47.0126 65.0402 47.2824 65.4072 47.8219C65.7888 48.3469 65.9796 49.0251 65.9796 49.8563C65.9796 52.7875 64.7907 55.2813 62.413 57.3375C64.2036 57.2646 65.6494 57.2282 66.7502 57.2282C67.1611 57.2282 67.4987 57.3084 67.7629 57.4688C68.0271 57.6146 68.1592 57.9063 68.1592 58.3438C68.1592 58.6354 68.1078 59.0802 68.0051 59.6781C67.917 60.2761 67.8143 60.874 67.6969 61.4719C67.4327 62.7115 67.3006 63.5281 67.3006 63.9219C67.3006 64.3594 67.3593 64.6948 67.4767 64.9281C67.5941 65.1615 67.7923 65.2781 68.0712 65.2781C68.3207 65.2781 68.6362 65.1104 69.0179 64.775C69.4142 64.425 69.9939 63.8344 70.7571 63.0031C70.9333 62.799 71.1314 62.6969 71.3516 62.6969ZM63.4037 49.1126C63.0514 49.1126 62.6038 49.8709 62.0607 51.3876C61.5176 52.9042 61.0259 54.7417 60.5856 56.9C61.3195 56.3896 61.9286 55.7552 62.413 54.9969C62.912 54.2386 63.2789 53.4584 63.5138 52.6563C63.7633 51.8396 63.888 51.0886 63.888 50.4032C63.888 49.5428 63.7266 49.1126 63.4037 49.1126ZM67.6749 55.9375C67.0584 55.9375 66.5961 55.799 66.2878 55.5219C65.9796 55.2302 65.8255 54.8292 65.8255 54.3188C65.8255 53.8084 66.0236 53.3855 66.4199 53.05C66.8309 52.7 67.3373 52.525 67.9391 52.525C68.4821 52.525 68.9225 52.6563 69.26 52.9188C69.5976 53.1813 69.7664 53.5532 69.7664 54.0344C69.7664 54.6177 69.5756 55.0844 69.194 55.4344C68.8124 55.7698 68.306 55.9375 67.6749 55.9375Z" fill="#EDF2F4"/>
<path d="M74.3857 67.6844C72.9473 67.6844 71.8245 67.2833 71.0172 66.4812C70.2246 65.6646 69.8283 64.5927 69.8283 63.2656C69.8283 62.0844 70.0632 61.049 70.5329 60.1594C71.0025 59.2698 71.6117 58.5844 72.3602 58.1031C73.1088 57.6219 73.894 57.3813 74.716 57.3813C75.5232 57.3813 76.147 57.6219 76.5874 58.1031C77.0424 58.5698 77.2699 59.175 77.2699 59.9188C77.2699 60.5313 77.1304 61.049 76.8515 61.4719C76.5873 61.8948 76.2351 62.1063 75.7948 62.1063C75.5159 62.1063 75.2884 62.0406 75.1123 61.9094C74.9508 61.7781 74.8701 61.5958 74.8701 61.3625C74.8701 61.2604 74.8848 61.1438 74.9141 61.0125C74.9435 60.8813 74.9655 60.7865 74.9802 60.7281C75.0535 60.5094 75.0902 60.3052 75.0902 60.1156C75.0902 59.9261 75.0389 59.7802 74.9361 59.6781C74.8481 59.5761 74.716 59.525 74.5398 59.525C74.2022 59.525 73.8867 59.6781 73.5931 59.9844C73.2996 60.2761 73.0647 60.6771 72.8886 61.1875C72.7125 61.6979 72.6244 62.2594 72.6244 62.8719C72.6244 64.5635 73.3656 65.4094 74.8481 65.4094C75.4498 65.4094 76.0957 65.2125 76.7855 64.8187C77.49 64.4104 78.1799 63.8052 78.855 63.0031C79.0312 62.799 79.2293 62.6969 79.4495 62.6969C79.6403 62.6969 79.7871 62.7844 79.8898 62.9594C80.0072 63.1344 80.0659 63.375 80.0659 63.6813C80.0659 64.2354 79.9265 64.6875 79.6476 65.0375C78.9578 65.8833 78.1285 66.5396 77.1598 67.0062C76.2057 67.4583 75.281 67.6844 74.3857 67.6844Z" fill="#EDF2F4"/>
<path d="M80.7792 67.6844C79.8692 67.6844 79.1427 67.3562 78.5996 66.7C78.0565 66.0437 77.785 65.1833 77.785 64.1187C77.785 62.9521 78.0565 61.851 78.5996 60.8156C79.1427 59.7656 79.8619 58.9271 80.7572 58.3C81.6672 57.6584 82.6286 57.3375 83.6414 57.3375C83.9643 57.3375 84.1771 57.4032 84.2798 57.5344C84.3972 57.6511 84.4927 57.8698 84.566 58.1906C84.8743 58.1323 85.1972 58.1031 85.5348 58.1031C86.254 58.1031 86.6136 58.3584 86.6136 58.8688C86.6136 59.175 86.5035 59.9042 86.2833 61.0563C85.9457 62.7333 85.7769 63.9 85.7769 64.5562C85.7769 64.775 85.8283 64.95 85.9311 65.0812C86.0485 65.2125 86.1952 65.2781 86.3714 65.2781C86.6503 65.2781 86.9878 65.1031 87.3841 64.7531C87.7804 64.3885 88.3162 63.8052 88.9913 63.0031C89.1675 62.799 89.3656 62.6969 89.5858 62.6969C89.7766 62.6969 89.9233 62.7844 90.0261 62.9594C90.1435 63.1344 90.2022 63.375 90.2022 63.6813C90.2022 64.2646 90.0628 64.7167 89.7839 65.0375C89.1821 65.7812 88.5437 66.4083 87.8685 66.9187C87.1933 67.4292 86.5402 67.6844 85.909 67.6844C85.4247 67.6844 84.977 67.5239 84.566 67.2031C84.1697 66.8677 83.8689 66.4156 83.6634 65.8469C82.9001 67.0719 81.9388 67.6844 80.7792 67.6844ZM81.5718 65.475C81.8947 65.475 82.203 65.2854 82.4965 64.9062C82.7901 64.5271 83.0029 64.024 83.135 63.3969L83.9496 59.3719C83.3331 59.3865 82.7607 59.6198 82.2323 60.0719C81.7186 60.5094 81.3076 61.0927 80.9994 61.8219C80.6912 62.551 80.537 63.324 80.537 64.1406C80.537 64.5927 80.6251 64.9281 80.8012 65.1469C80.9921 65.3656 81.2489 65.475 81.5718 65.475Z" fill="#EDF2F4"/>
<path d="M98.2322 62.6969C98.423 62.6969 98.5698 62.7844 98.6725 62.9594C98.7899 63.1344 98.8486 63.375 98.8486 63.6813C98.8486 64.2646 98.7092 64.7167 98.4303 65.0375C97.7992 65.8104 97.1093 66.4448 96.3608 66.9406C95.6122 67.4364 94.7536 67.6844 93.7849 67.6844C90.7906 67.6844 89.2935 65.5917 89.2935 61.4063C89.2935 60.7646 89.3155 60.1156 89.3596 59.4594H88.5009C88.0606 59.4594 87.7597 59.3792 87.5983 59.2188C87.4515 59.0584 87.3781 58.8031 87.3781 58.4531C87.3781 57.6365 87.7084 57.2282 88.3688 57.2282H89.6238C89.8733 55.624 90.2549 54.1584 90.7686 52.8313C91.2823 51.5042 91.8988 50.4469 92.618 49.6594C93.3519 48.8719 94.1371 48.4782 94.9738 48.4782C95.5902 48.4782 96.0746 48.748 96.4268 49.2876C96.7791 49.8271 96.9552 50.5053 96.9552 51.3219C96.9552 53.5823 96.0012 55.5511 94.0931 57.2282H96.5589C96.7938 57.2282 96.9626 57.2792 97.0653 57.3813C97.168 57.4834 97.2194 57.6729 97.2194 57.95C97.2194 58.9563 96.3901 59.4594 94.7316 59.4594H92.0456C92.0162 60.1886 92.0015 60.7573 92.0015 61.1656C92.0015 62.6823 92.1777 63.7469 92.5299 64.3594C92.8969 64.9719 93.4693 65.2781 94.2472 65.2781C94.8783 65.2781 95.4361 65.0885 95.9205 64.7094C96.4048 64.3302 96.9772 63.7615 97.6377 63.0031C97.8139 62.799 98.012 62.6969 98.2322 62.6969ZM94.3793 50.5782C94.1591 50.5782 93.9096 50.8553 93.6307 51.4094C93.3666 51.949 93.1097 52.7073 92.8602 53.6844C92.6253 54.6469 92.4272 55.7188 92.2657 56.9C93.1317 56.1563 93.7775 55.325 94.2032 54.4063C94.6435 53.473 94.8637 52.6271 94.8637 51.8688C94.8637 51.0084 94.7022 50.5782 94.3793 50.5782Z" fill="#EDF2F4"/>
<path d="M99.9402 55.9375C99.3237 55.9375 98.8614 55.799 98.5531 55.5219C98.2449 55.2302 98.0908 54.8292 98.0908 54.3188C98.0908 53.8084 98.2889 53.3855 98.6852 53.05C99.0962 52.7 99.6026 52.525 100.204 52.525C100.747 52.525 101.188 52.6563 101.525 52.9188C101.863 53.1813 102.032 53.5532 102.032 54.0344C102.032 54.6177 101.841 55.0844 101.459 55.4344C101.078 55.7698 100.571 55.9375 99.9402 55.9375ZM99.764 67.6844C98.81 67.6844 98.1128 67.3489 97.6725 66.6781C97.2468 66.0073 97.034 65.1177 97.034 64.0094C97.034 63.3531 97.1147 62.5146 97.2762 61.4938C97.4523 60.4583 97.6725 59.4959 97.9367 58.6063C98.0688 58.1396 98.2449 57.8188 98.4651 57.6438C98.6852 57.4688 99.0375 57.3813 99.5218 57.3813C100.27 57.3813 100.645 57.6292 100.645 58.125C100.645 58.4896 100.505 59.3354 100.226 60.6625C99.8741 62.2667 99.698 63.3531 99.698 63.9219C99.698 64.3594 99.7567 64.6948 99.8741 64.9281C99.9915 65.1615 100.19 65.2781 100.469 65.2781C100.733 65.2781 101.063 65.0958 101.459 64.7312C101.856 64.3667 102.384 63.7906 103.044 63.0031C103.221 62.799 103.419 62.6969 103.639 62.6969C103.83 62.6969 103.976 62.7844 104.079 62.9594C104.197 63.1344 104.255 63.375 104.255 63.6813C104.255 64.2646 104.116 64.7167 103.837 65.0375C102.384 66.8021 101.026 67.6844 99.764 67.6844Z" fill="#EDF2F4"/>
<path d="M113.702 60.8594C113.893 60.8594 114.04 60.9542 114.143 61.1438C114.246 61.3333 114.297 61.574 114.297 61.8656C114.297 62.5656 114.084 62.9813 113.658 63.1125C112.778 63.4188 111.809 63.5938 110.752 63.6375C110.473 64.8625 109.923 65.8469 109.101 66.5906C108.279 67.3198 107.347 67.6844 106.305 67.6844C105.424 67.6844 104.668 67.4729 104.037 67.05C103.421 66.6271 102.951 66.0656 102.628 65.3656C102.305 64.6656 102.144 63.9073 102.144 63.0906C102.144 61.9823 102.357 60.9979 102.782 60.1375C103.208 59.2625 103.795 58.5844 104.544 58.1031C105.292 57.6073 106.121 57.3594 107.031 57.3594C108.147 57.3594 109.042 57.7459 109.717 58.5188C110.407 59.2771 110.811 60.2177 110.928 61.3406C111.618 61.2969 112.44 61.1511 113.394 60.9031C113.512 60.874 113.614 60.8594 113.702 60.8594ZM106.481 65.3656C106.951 65.3656 107.354 65.176 107.692 64.7969C108.044 64.4177 108.279 63.8708 108.396 63.1563C107.941 62.85 107.589 62.449 107.34 61.9531C107.105 61.4573 106.987 60.9323 106.987 60.3781C106.987 60.1448 107.009 59.9115 107.053 59.6781H106.943C106.356 59.6781 105.865 59.9625 105.468 60.5313C105.087 61.0854 104.896 61.8729 104.896 62.8938C104.896 63.6958 105.05 64.3083 105.358 64.7312C105.681 65.1542 106.055 65.3656 106.481 65.3656Z" fill="#EDF2F4"/>
<path d="M113.97 67.6844C113.413 67.6844 113.016 67.3927 112.782 66.8094C112.561 66.226 112.451 65.2927 112.451 64.0094C112.451 62.1135 112.723 60.3125 113.266 58.6063C113.398 58.1834 113.611 57.8771 113.904 57.6875C114.213 57.4834 114.638 57.3813 115.181 57.3813C115.475 57.3813 115.68 57.4177 115.798 57.4907C115.915 57.5636 115.974 57.7021 115.974 57.9063C115.974 58.1396 115.864 58.6646 115.644 59.4813C115.497 60.0646 115.379 60.575 115.291 61.0125C115.203 61.45 115.13 61.9896 115.071 62.6313C115.556 61.3771 116.099 60.3563 116.7 59.5688C117.302 58.7813 117.889 58.2198 118.462 57.8844C119.049 57.549 119.585 57.3813 120.069 57.3813C120.539 57.3813 120.891 57.5052 121.126 57.7532C121.375 57.9865 121.5 58.3365 121.5 58.8031C121.5 59.1823 121.419 59.8969 121.258 60.9469C121.111 61.8365 120.994 62.6823 120.906 63.4844C120.817 64.2719 120.773 65.1542 120.773 66.1312C120.773 66.6854 120.656 67.0864 120.421 67.3344C120.201 67.5677 119.834 67.6844 119.32 67.6844C118.836 67.6844 118.484 67.5604 118.264 67.3125C118.043 67.0646 117.933 66.6927 117.933 66.1969C117.933 65.6135 118.036 64.651 118.242 63.3094C118.418 62.1427 118.506 61.399 118.506 61.0781C118.506 60.8448 118.425 60.7281 118.264 60.7281C118.073 60.7281 117.801 60.9761 117.449 61.4719C117.111 61.9531 116.759 62.5948 116.392 63.3969C116.04 64.199 115.754 65.0448 115.534 65.9344C115.372 66.6198 115.181 67.0864 114.961 67.3344C114.756 67.5677 114.425 67.6844 113.97 67.6844Z" fill="#EDF2F4"/>
</svg>
