<svg width="512" height="512" viewBox="0 0 512 512" fill="none" xmlns="http://www.w3.org/2000/svg">
<circle cx="262.432" cy="257.286" r="192.965" fill="#5C6779"/>
<circle cx="256" cy="256" r="256" fill="#5C6779" fill-opacity="0.4"/>
<circle cx="262.432" cy="257.286" r="128.643" fill="#8D99AE"/>
<path d="M34.4812 285.221C32.1927 285.221 30.5537 284.73 29.5641 283.746C28.5744 282.702 28.0796 280.766 28.0796 277.939C28.0796 276.034 28.2652 273.606 28.6363 270.657C29.0693 267.645 29.7496 263.528 30.6774 258.304C32.2855 248.656 33.5535 240.298 34.4812 233.231C35.0379 228.807 35.3162 225.119 35.3162 222.17C35.3162 219.404 34.2957 218.021 32.2546 218.021C30.6465 218.021 28.6981 218.851 26.4097 220.51C24.183 222.108 21.709 224.689 18.9875 228.254C18.1216 229.421 17.1629 230.005 16.1114 230.005C15.2455 230.005 14.4724 229.606 13.792 228.807C13.1735 227.946 12.8643 226.994 12.8643 225.949C12.8643 224.966 13.0498 223.983 13.4209 222.999C13.8539 221.955 14.5342 220.787 15.462 219.496C18.4309 215.379 21.7399 212.214 25.3891 210.002C29.0383 207.728 32.6875 206.591 36.3368 206.591C39.7386 206.591 42.3363 207.667 44.13 209.817C45.9855 211.968 46.9133 215.102 46.9133 219.22C46.9133 220.879 46.7587 222.846 46.4494 225.119C46.1402 227.332 45.8618 229.145 45.6144 230.558C45.367 231.971 45.1815 232.955 45.0578 233.508C48.5833 223.491 52.5418 216.516 56.9332 212.583C61.3246 208.588 66.149 206.591 71.4064 206.591C75.4267 206.591 78.5811 208.005 80.8696 210.831C83.2199 213.658 84.3951 217.653 84.3951 222.815C84.3951 224.843 84.1168 227.362 83.5601 230.374C86.6527 221.893 90.2709 215.809 94.415 212.122C98.559 208.435 103.322 206.591 108.703 206.591C113.032 206.591 116.341 207.974 118.63 210.739C120.98 213.505 122.155 217.376 122.155 222.354C122.155 225.058 121.753 228.346 120.949 232.217L115.29 258.581C114.671 261.654 114.362 264.296 114.362 266.509C114.362 269.09 114.95 271.025 116.125 272.316C117.362 273.606 119.063 274.252 121.227 274.252C123.269 274.252 125.248 273.576 127.165 272.224C129.144 270.872 131.464 268.629 134.123 265.495C134.866 264.634 135.701 264.204 136.628 264.204C137.432 264.204 138.051 264.573 138.484 265.31C138.979 266.048 139.226 267.062 139.226 268.352C139.226 270.749 138.639 272.654 137.463 274.067C134.247 277.939 131.062 280.766 127.907 282.548C124.753 284.33 121.444 285.221 117.98 285.221C112.723 285.221 108.61 283.685 105.641 280.612C102.672 277.478 101.188 273.299 101.188 268.076C101.188 264.45 101.93 259.196 103.414 252.313L107.125 235.444C107.249 234.891 107.466 233.907 107.775 232.494C108.084 231.08 108.331 229.759 108.517 228.53C108.703 227.24 108.795 225.98 108.795 224.751C108.795 222.6 108.362 221.002 107.496 219.957C106.692 218.851 105.517 218.298 103.971 218.298C101.064 218.298 98.0023 220.172 94.7861 223.921C91.6317 227.608 88.601 233.754 85.694 242.357C82.8488 250.961 80.5294 262.145 78.7357 275.911C78.3028 279.598 77.5296 282.087 76.4163 283.378C75.3648 284.607 73.633 285.221 71.2208 285.221C69.1179 285.221 67.5716 284.73 66.582 283.746C65.6542 282.763 65.1903 280.919 65.1903 278.215C65.1903 275.696 65.5305 272.408 66.2109 268.352C66.8912 264.235 67.7571 259.411 68.8086 253.88C71.6538 239.008 73.0763 229.421 73.0763 225.119C73.0763 222.784 72.6124 221.063 71.6847 219.957C70.8188 218.851 69.489 218.298 67.6953 218.298C64.6646 218.298 61.5411 220.019 58.3248 223.46C55.1086 226.84 51.9542 232.893 48.8616 241.62C45.8309 250.285 43.295 262.022 41.2539 276.833C40.821 279.967 40.1715 282.148 39.3056 283.378C38.5016 284.607 36.8934 285.221 34.4812 285.221Z" fill="#EDF2F4"/>
<path d="M141.214 285.221C138.43 285.221 136.142 283.961 134.348 281.442C132.616 278.861 131.75 275.665 131.75 271.855C131.75 267.246 132.06 263.036 132.678 259.226C133.297 255.355 134.317 251.268 135.74 246.966C136.358 245.123 137.224 243.801 138.337 243.002C139.451 242.204 141.214 241.804 143.626 241.804C144.986 241.804 145.914 242.019 146.409 242.449C146.966 242.88 147.244 243.525 147.244 244.385C147.244 244.877 146.904 246.536 146.224 249.363C145.605 251.637 145.11 253.695 144.739 255.539C143.502 261.992 142.884 266.293 142.884 268.444C142.884 269.735 143.038 270.657 143.347 271.21C143.657 271.701 144.151 271.947 144.832 271.947C145.76 271.947 146.904 271.025 148.265 269.182C149.687 267.338 151.172 264.542 152.718 260.793C154.326 257.045 155.872 252.436 157.357 246.966C157.852 245.123 158.594 243.801 159.583 243.002C160.635 242.204 162.181 241.804 164.222 241.804C165.645 241.804 166.634 241.988 167.191 242.357C167.748 242.664 168.026 243.279 168.026 244.201C168.026 245.737 167.253 249.947 165.707 256.83C163.975 264.696 163.109 269.55 163.109 271.394C163.109 272.562 163.356 273.484 163.851 274.159C164.346 274.774 164.995 275.081 165.799 275.081C167.036 275.081 168.49 274.344 170.16 272.869C171.892 271.333 174.18 268.874 177.025 265.495C177.768 264.634 178.603 264.204 179.53 264.204C180.334 264.204 180.953 264.573 181.386 265.31C181.881 266.048 182.128 267.062 182.128 268.352C182.128 270.81 181.54 272.715 180.365 274.067C177.706 277.324 174.83 279.998 171.737 282.087C168.706 284.176 165.243 285.221 161.346 285.221C158.377 285.221 156.182 284.084 154.759 281.81C153.398 279.537 152.718 276.341 152.718 272.224C151.666 276.403 150.089 279.629 147.986 281.903C145.883 284.115 143.626 285.221 141.214 285.221Z" fill="#EDF2F4"/>
<path d="M191.862 287.249C188.645 287.249 186.171 286.512 184.44 285.037C182.77 283.562 181.935 281.903 181.935 280.059C181.935 278.461 182.522 277.079 183.697 275.911C184.872 274.743 186.604 274.159 188.893 274.159C189.697 274.159 190.625 274.252 191.676 274.436C192.789 274.559 193.624 274.651 194.181 274.713C194.119 273.115 193.748 271.609 193.068 270.196C192.449 268.782 191.645 267.43 190.656 266.14C189.666 264.788 188.738 263.62 187.872 262.637C185.955 266.263 184.037 269.274 182.12 271.671C180.265 274.067 178.223 276.341 175.997 278.492C174.884 279.598 173.708 280.151 172.471 280.151C171.482 280.151 170.678 279.813 170.059 279.137C169.441 278.4 169.131 277.509 169.131 276.464C169.131 275.235 169.564 274.098 170.43 273.053L171.636 271.578C175.038 267.4 177.605 263.958 179.337 261.254C180.388 259.472 181.625 257.106 183.048 254.156C184.47 251.145 185.862 248.042 187.223 244.846C188.398 242.142 190.841 240.79 194.552 240.79C196.284 240.79 197.49 240.944 198.17 241.251C198.851 241.558 199.191 242.05 199.191 242.726C199.191 243.095 199.067 243.678 198.82 244.477C198.573 245.276 198.232 246.075 197.799 246.874C196.686 249.086 196.129 250.961 196.129 252.497C196.129 253.419 196.439 254.433 197.057 255.539C197.738 256.645 198.758 258.028 200.119 259.687C202.098 262.268 203.582 264.481 204.572 266.324C205.624 268.106 206.149 270.073 206.149 272.224C206.149 272.838 206.087 273.699 205.964 274.805C208.994 273.637 212.551 270.534 216.633 265.495C217.375 264.634 218.21 264.204 219.138 264.204C219.942 264.204 220.561 264.573 220.994 265.31C221.488 266.048 221.736 267.062 221.736 268.352C221.736 270.687 221.148 272.592 219.973 274.067C216.88 277.877 213.912 280.489 211.066 281.903C208.283 283.255 204.819 283.992 200.675 284.115C198.201 286.204 195.263 287.249 191.862 287.249Z" fill="#EDF2F4"/>
<path d="M226.352 235.72C223.754 235.72 221.806 235.136 220.507 233.969C219.208 232.74 218.559 231.05 218.559 228.899C218.559 226.748 219.394 224.966 221.064 223.552C222.796 222.077 224.93 221.34 227.465 221.34C229.754 221.34 231.609 221.893 233.032 222.999C234.455 224.105 235.166 225.672 235.166 227.7C235.166 230.159 234.362 232.125 232.754 233.6C231.146 235.013 229.012 235.72 226.352 235.72ZM225.61 285.221C221.59 285.221 218.652 283.808 216.796 280.981C215.002 278.154 214.106 274.405 214.106 269.735C214.106 266.969 214.446 263.436 215.126 259.134C215.868 254.771 216.796 250.715 217.909 246.966C218.466 245 219.208 243.648 220.136 242.91C221.064 242.173 222.548 241.804 224.589 241.804C227.744 241.804 229.321 242.849 229.321 244.938C229.321 246.475 228.733 250.039 227.558 255.631C226.074 262.391 225.332 266.969 225.332 269.366C225.332 271.21 225.579 272.623 226.074 273.606C226.569 274.59 227.404 275.081 228.579 275.081C229.692 275.081 231.084 274.313 232.754 272.777C234.424 271.24 236.65 268.813 239.434 265.495C240.176 264.634 241.011 264.204 241.939 264.204C242.743 264.204 243.361 264.573 243.794 265.31C244.289 266.048 244.536 267.062 244.536 268.352C244.536 270.81 243.949 272.715 242.774 274.067C236.65 281.503 230.929 285.221 225.61 285.221Z" fill="#EDF2F4"/>
<path d="M300.675 264.204C301.479 264.204 302.098 264.573 302.53 265.31C303.025 266.048 303.273 267.062 303.273 268.352C303.273 270.81 302.685 272.715 301.51 274.067C298.974 277.14 296.16 279.783 293.067 281.995C290.037 284.146 286.975 285.221 283.882 285.221C279.862 285.221 276.924 283.808 275.069 280.981C273.275 278.154 272.378 274.405 272.378 269.735C272.378 267.338 272.625 264.388 273.12 260.885C273.677 257.383 274.388 253.941 275.254 250.561C269.069 250.561 261.74 250.838 253.266 251.391C251.905 259.994 251.225 268.014 251.225 275.45C251.225 281.165 251.534 287.126 252.153 293.333C252.833 299.601 253.823 302.735 255.122 302.735C255.74 302.735 256.39 301.66 257.07 299.509C257.75 297.358 258.307 294.409 258.74 290.66C259.173 286.911 259.389 282.763 259.389 278.215C259.389 273.238 259.111 267.86 258.554 262.084C258.431 260.363 258.709 259.103 259.389 258.304C260.132 257.444 261.214 257.014 262.637 257.014C263.935 257.014 264.894 257.352 265.513 258.028C266.131 258.704 266.502 259.841 266.626 261.439C266.935 265.925 267.09 271.271 267.09 277.478C267.09 287.495 265.853 296.068 263.379 303.196C260.967 310.325 257.194 313.889 252.06 313.889C247.669 313.889 244.514 310.724 242.597 304.395C240.679 298.126 239.721 288.693 239.721 276.095C239.721 268.659 240.308 260.701 241.483 252.221C241.05 252.282 240.494 252.313 239.813 252.313C237.896 252.313 236.597 251.975 235.917 251.299C235.298 250.623 234.989 249.578 234.989 248.165C234.989 246.628 235.391 245.399 236.195 244.477C237.061 243.556 238.669 243.002 241.02 242.818C241.452 242.757 242.133 242.726 243.061 242.726C244.731 234.43 246.864 226.902 249.462 220.142C252.06 213.382 255.029 208.035 258.369 204.102C261.709 200.108 265.234 198.11 268.945 198.11C271.852 198.11 274.079 199.247 275.625 201.521C277.233 203.733 278.037 206.591 278.037 210.094C278.037 222.446 273.028 232.955 263.008 241.62C270.553 241.312 276.646 241.159 281.285 241.159C283.016 241.159 284.439 241.497 285.552 242.173C286.666 242.787 287.222 244.016 287.222 245.86C287.222 247.089 287.006 248.963 286.573 251.483C286.202 254.003 285.769 256.522 285.274 259.042C284.161 264.265 283.604 267.707 283.604 269.366C283.604 271.21 283.851 272.623 284.346 273.606C284.841 274.59 285.676 275.081 286.851 275.081C287.903 275.081 289.232 274.375 290.841 272.961C292.511 271.486 294.954 268.997 298.17 265.495C298.912 264.634 299.747 264.204 300.675 264.204ZM267.183 206.96C265.698 206.96 263.812 210.155 261.523 216.547C259.235 222.938 257.163 230.681 255.307 239.776C258.4 237.625 260.967 234.952 263.008 231.756C265.111 228.561 266.657 225.273 267.646 221.893C268.698 218.452 269.224 215.287 269.224 212.398C269.224 208.773 268.543 206.96 267.183 206.96ZM285.181 235.72C282.584 235.72 280.635 235.136 279.336 233.969C278.037 232.74 277.388 231.05 277.388 228.899C277.388 226.748 278.223 224.966 279.893 223.552C281.625 222.077 283.759 221.34 286.295 221.34C288.583 221.34 290.439 221.893 291.861 222.999C293.284 224.105 293.995 225.672 293.995 227.7C293.995 230.159 293.191 232.125 291.583 233.6C289.975 235.013 287.841 235.72 285.181 235.72Z" fill="#EDF2F4"/>
<path d="M313.461 285.221C307.399 285.221 302.668 283.531 299.266 280.151C295.926 276.71 294.256 272.193 294.256 266.601C294.256 261.623 295.246 257.26 297.225 253.511C299.204 249.762 301.771 246.874 304.925 244.846C308.08 242.818 311.389 241.804 314.852 241.804C318.254 241.804 320.883 242.818 322.738 244.846C324.656 246.813 325.614 249.363 325.614 252.497C325.614 255.078 325.027 257.26 323.852 259.042C322.738 260.824 321.254 261.715 319.398 261.715C318.223 261.715 317.265 261.439 316.522 260.885C315.842 260.332 315.502 259.564 315.502 258.581C315.502 258.151 315.564 257.659 315.687 257.106C315.811 256.553 315.904 256.154 315.966 255.908C316.275 254.986 316.43 254.126 316.43 253.327C316.43 252.528 316.213 251.913 315.78 251.483C315.409 251.053 314.852 250.838 314.11 250.838C312.688 250.838 311.358 251.483 310.121 252.774C308.884 254.003 307.894 255.693 307.152 257.844C306.41 259.994 306.039 262.36 306.039 264.941C306.039 272.07 309.162 275.634 315.409 275.634C317.945 275.634 320.666 274.805 323.573 273.146C326.542 271.425 329.449 268.874 332.294 265.495C333.037 264.634 333.872 264.204 334.799 264.204C335.603 264.204 336.222 264.573 336.655 265.31C337.15 266.048 337.397 267.062 337.397 268.352C337.397 270.687 336.81 272.592 335.634 274.067C332.727 277.632 329.233 280.397 325.151 282.364C321.13 284.269 317.234 285.221 313.461 285.221Z" fill="#EDF2F4"/>
<path d="M340.403 285.221C336.568 285.221 333.507 283.838 331.218 281.073C328.93 278.308 327.785 274.682 327.785 270.196C327.785 265.279 328.93 260.64 331.218 256.276C333.507 251.852 336.537 248.318 340.31 245.676C344.145 242.972 348.196 241.62 352.464 241.62C353.825 241.62 354.721 241.896 355.154 242.449C355.649 242.941 356.051 243.863 356.361 245.215C357.659 244.969 359.02 244.846 360.443 244.846C363.473 244.846 364.989 245.921 364.989 248.072C364.989 249.363 364.525 252.436 363.597 257.29C362.175 264.358 361.463 269.274 361.463 272.039C361.463 272.961 361.68 273.699 362.113 274.252C362.608 274.805 363.226 275.081 363.968 275.081C365.143 275.081 366.566 274.344 368.236 272.869C369.906 271.333 372.164 268.874 375.009 265.495C375.751 264.634 376.586 264.204 377.514 264.204C378.318 264.204 378.936 264.573 379.369 265.31C379.864 266.048 380.111 267.062 380.111 268.352C380.111 270.81 379.524 272.715 378.349 274.067C375.813 277.201 373.122 279.844 370.277 281.995C367.432 284.146 364.68 285.221 362.02 285.221C359.979 285.221 358.092 284.545 356.361 283.193C354.691 281.78 353.423 279.875 352.557 277.478C349.34 282.64 345.289 285.221 340.403 285.221ZM343.743 275.911C345.104 275.911 346.403 275.112 347.64 273.514C348.877 271.916 349.773 269.796 350.33 267.154L353.763 250.193C351.165 250.254 348.753 251.237 346.526 253.142C344.361 254.986 342.63 257.444 341.331 260.517C340.032 263.589 339.382 266.847 339.382 270.288C339.382 272.193 339.754 273.606 340.496 274.528C341.3 275.45 342.382 275.911 343.743 275.911Z" fill="#EDF2F4"/>
<path d="M413.949 264.204C414.754 264.204 415.372 264.573 415.805 265.31C416.3 266.048 416.547 267.062 416.547 268.352C416.547 270.81 415.96 272.715 414.784 274.067C412.125 277.324 409.218 279.998 406.063 282.087C402.909 284.176 399.291 285.221 395.209 285.221C382.591 285.221 376.282 276.403 376.282 258.765C376.282 256.061 376.375 253.327 376.56 250.561H372.942C371.087 250.561 369.819 250.223 369.138 249.547C368.52 248.871 368.211 247.796 368.211 246.321C368.211 242.88 369.602 241.159 372.386 241.159H377.674C378.725 234.399 380.333 228.223 382.498 222.631C384.663 217.038 387.261 212.583 390.291 209.264C393.384 205.946 396.693 204.287 400.219 204.287C402.816 204.287 404.857 205.423 406.342 207.697C407.826 209.971 408.568 212.829 408.568 216.27C408.568 225.795 404.548 234.092 396.507 241.159H406.898C407.888 241.159 408.599 241.374 409.032 241.804C409.465 242.234 409.682 243.033 409.682 244.201C409.682 248.441 406.187 250.561 399.198 250.561H387.879C387.756 253.634 387.694 256.031 387.694 257.751C387.694 264.143 388.436 268.629 389.92 271.21C391.467 273.791 393.879 275.081 397.157 275.081C399.817 275.081 402.167 274.282 404.208 272.685C406.249 271.087 408.661 268.69 411.445 265.495C412.187 264.634 413.022 264.204 413.949 264.204ZM397.714 213.136C396.786 213.136 395.734 214.304 394.559 216.639C393.446 218.913 392.363 222.108 391.312 226.226C390.322 230.282 389.487 234.798 388.807 239.776C392.456 236.642 395.178 233.139 396.971 229.268C398.827 225.334 399.755 221.77 399.755 218.575C399.755 214.949 399.074 213.136 397.714 213.136Z" fill="#EDF2F4"/>
<path d="M421.147 235.72C418.549 235.72 416.601 235.136 415.302 233.969C414.003 232.74 413.354 231.05 413.354 228.899C413.354 226.748 414.189 224.966 415.859 223.552C417.591 222.077 419.724 221.34 422.26 221.34C424.549 221.34 426.404 221.893 427.827 222.999C429.249 224.105 429.961 225.672 429.961 227.7C429.961 230.159 429.157 232.125 427.549 233.6C425.94 235.013 423.807 235.72 421.147 235.72ZM420.405 285.221C416.384 285.221 413.446 283.808 411.591 280.981C409.797 278.154 408.9 274.405 408.9 269.735C408.9 266.969 409.241 263.436 409.921 259.134C410.663 254.771 411.591 250.715 412.704 246.966C413.261 245 414.003 243.648 414.931 242.91C415.859 242.173 417.343 241.804 419.384 241.804C422.539 241.804 424.116 242.849 424.116 244.938C424.116 246.475 423.528 250.039 422.353 255.631C420.869 262.391 420.126 266.969 420.126 269.366C420.126 271.21 420.374 272.623 420.869 273.606C421.363 274.59 422.198 275.081 423.374 275.081C424.487 275.081 425.879 274.313 427.549 272.777C429.218 271.24 431.445 268.813 434.228 265.495C434.971 264.634 435.806 264.204 436.733 264.204C437.537 264.204 438.156 264.573 438.589 265.31C439.084 266.048 439.331 267.062 439.331 268.352C439.331 270.81 438.744 272.715 437.568 274.067C431.445 281.503 425.724 285.221 420.405 285.221Z" fill="#EDF2F4"/>
<path d="M479.141 256.461C479.945 256.461 480.564 256.86 480.997 257.659C481.43 258.458 481.646 259.472 481.646 260.701C481.646 263.651 480.749 265.402 478.956 265.955C475.244 267.246 471.162 267.983 466.709 268.168C465.534 273.33 463.214 277.478 459.751 280.612C456.287 283.685 452.36 285.221 447.968 285.221C444.257 285.221 441.072 284.33 438.412 282.548C435.814 280.766 433.835 278.4 432.474 275.45C431.114 272.5 430.433 269.305 430.433 265.863C430.433 261.193 431.33 257.045 433.124 253.419C434.918 249.732 437.392 246.874 440.546 244.846C443.7 242.757 447.195 241.712 451.03 241.712C455.73 241.712 459.503 243.34 462.348 246.597C465.255 249.793 466.956 253.757 467.451 258.489C470.358 258.304 473.822 257.69 477.842 256.645C478.337 256.522 478.77 256.461 479.141 256.461ZM448.71 275.45C450.69 275.45 452.39 274.651 453.813 273.053C455.297 271.456 456.287 269.151 456.782 266.14C454.865 264.849 453.38 263.159 452.329 261.07C451.339 258.98 450.844 256.768 450.844 254.433C450.844 253.45 450.937 252.466 451.123 251.483H450.659C448.185 251.483 446.113 252.681 444.443 255.078C442.834 257.413 442.03 260.732 442.03 265.034C442.03 268.414 442.68 270.995 443.979 272.777C445.339 274.559 446.917 275.45 448.71 275.45Z" fill="#EDF2F4"/>
<path d="M480.27 285.221C477.92 285.221 476.25 283.992 475.26 281.534C474.333 279.076 473.869 275.143 473.869 269.735C473.869 261.746 475.013 254.156 477.301 246.966C477.858 245.184 478.755 243.894 479.992 243.095C481.291 242.234 483.085 241.804 485.373 241.804C486.61 241.804 487.476 241.958 487.971 242.265C488.466 242.572 488.713 243.156 488.713 244.016C488.713 245 488.249 247.212 487.321 250.653C486.703 253.112 486.208 255.262 485.837 257.106C485.466 258.95 485.157 261.223 484.909 263.927C486.95 258.642 489.239 254.341 491.775 251.022C494.311 247.704 496.785 245.338 499.197 243.924C501.671 242.511 503.928 241.804 505.969 241.804C507.949 241.804 509.433 242.326 510.423 243.371C511.474 244.354 512 245.829 512 247.796C512 249.394 511.66 252.405 510.979 256.83C510.361 260.578 509.866 264.143 509.495 267.522C509.124 270.841 508.938 274.559 508.938 278.676C508.938 281.012 508.444 282.702 507.454 283.746C506.526 284.73 504.98 285.221 502.815 285.221C500.774 285.221 499.29 284.699 498.362 283.654C497.434 282.609 496.97 281.042 496.97 278.953C496.97 276.495 497.403 272.439 498.269 266.785C499.011 261.869 499.382 258.735 499.382 257.383C499.382 256.399 499.042 255.908 498.362 255.908C497.558 255.908 496.413 256.952 494.929 259.042C493.506 261.07 492.022 263.774 490.476 267.154C488.991 270.534 487.785 274.098 486.857 277.847C486.177 280.735 485.373 282.702 484.445 283.746C483.579 284.73 482.188 285.221 480.27 285.221Z" fill="#EDF2F4"/>
</svg>
